# Blender v2.77 (sub 0) OBJ File: ''
# www.blender.org
mtllib halfdoor.mtl
o Cube.000_Cube.002
v 0.997929 -0.000517 -0.109096
v 0.997929 -0.000517 0.084807
v 0.450052 -0.000517 0.084807
v 0.450052 -0.000517 -0.109097
v 0.997929 0.676059 -0.109096
v 0.450052 0.676059 -0.109096
v 0.450052 0.676059 0.084806
v 0.997929 0.676059 0.084807
vn 0.0000 -1.0000 -0.0000
vn 0.0000 1.0000 0.0000
vn 1.0000 0.0000 0.0000
vn -0.0000 0.0000 1.0000
vn -1.0000 0.0000 0.0000
vn 0.0000 0.0000 -1.0000
usemtl Material.002
s 1
f 1//1 2//1 3//1 4//1
f 5//2 6//2 7//2 8//2
f 1//3 5//3 8//3 2//3
f 2//4 8//4 7//4 3//4
f 3//5 7//5 6//5 4//5
f 5//6 1//6 4//6 6//6
o Cube.001_Cube.003
v -0.442885 -0.013395 -0.119281
v -0.442885 -0.013395 0.074622
v -0.990762 -0.013395 0.074622
v -0.990762 -0.013395 -0.119282
v -0.442885 0.663181 -0.119281
v -0.990762 0.663181 -0.119281
v -0.990762 0.663181 0.074621
v -0.442885 0.663181 0.074622
vn 0.0000 -1.0000 -0.0000
vn 0.0000 1.0000 0.0000
vn 1.0000 0.0000 0.0000
vn -0.0000 0.0000 1.0000
vn -1.0000 0.0000 0.0000
vn 0.0000 0.0000 -1.0000
usemtl Material.003
s 1
f 9//7 10//7 11//7 12//7
f 13//8 14//8 15//8 16//8
f 9//9 13//9 16//9 10//9
f 10//10 16//10 15//10 11//10
f 11//11 15//11 14//11 12//11
f 13//12 9//12 12//12 14//12
